<mxfile host="app.diagrams.net" modified="2021-05-04T02:54:22.093Z" agent="5.0 (Windows NT 10.0; Win64; x64) AppleWebKit/537.36 (KHTML, like Gecko) Chrome/91.0.4472.27 Safari/537.36 Edg/91.0.864.15" etag="SER19zNEERruQ6hS-6Os" version="14.6.9" type="github">
  <diagram id="eFO81loMMpm9yUmjzvVb" name="第 1 页">
    <mxGraphModel dx="1108" dy="617" grid="1" gridSize="10" guides="1" tooltips="1" connect="1" arrows="1" fold="1" page="1" pageScale="1" pageWidth="827" pageHeight="1169" math="0" shadow="0">
      <root>
        <mxCell id="0" />
        <mxCell id="1" parent="0" />
        <mxCell id="JSvV9pCxkYcWFkU1D8kk-30" value="" style="shape=flexArrow;endArrow=classic;html=1;width=11;endSize=9.16;shadow=0;entryX=0.804;entryY=0.051;entryDx=0;entryDy=0;entryPerimeter=0;strokeWidth=3;" edge="1" parent="1" target="JSvV9pCxkYcWFkU1D8kk-1">
          <mxGeometry width="50" height="50" relative="1" as="geometry">
            <mxPoint x="626" y="440" as="sourcePoint" />
            <mxPoint x="625.3200000000002" y="512.46" as="targetPoint" />
          </mxGeometry>
        </mxCell>
        <mxCell id="JSvV9pCxkYcWFkU1D8kk-34" value="" style="shape=flexArrow;endArrow=classic;html=1;width=17;endSize=8.73;shadow=0;" edge="1" parent="1">
          <mxGeometry width="50" height="50" relative="1" as="geometry">
            <mxPoint x="600" y="250.0048484848485" as="sourcePoint" />
            <mxPoint x="770" y="320" as="targetPoint" />
            <Array as="points">
              <mxPoint x="770" y="250" />
            </Array>
          </mxGeometry>
        </mxCell>
        <mxCell id="JSvV9pCxkYcWFkU1D8kk-26" value="" style="shape=flexArrow;endArrow=classic;html=1;width=11;endSize=9.16;shadow=0;exitX=0.237;exitY=0.993;exitDx=0;exitDy=0;exitPerimeter=0;entryX=0.656;entryY=0.018;entryDx=0;entryDy=0;entryPerimeter=0;strokeWidth=3;" edge="1" parent="1">
          <mxGeometry width="50" height="50" relative="1" as="geometry">
            <mxPoint x="590" y="259.99999999999994" as="sourcePoint" />
            <mxPoint x="590.8200000000002" y="342.46" as="targetPoint" />
          </mxGeometry>
        </mxCell>
        <mxCell id="JSvV9pCxkYcWFkU1D8kk-33" value="" style="shape=flexArrow;endArrow=classic;html=1;width=17;endSize=8.73;shadow=0;" edge="1" parent="1">
          <mxGeometry width="50" height="50" relative="1" as="geometry">
            <mxPoint x="350" y="555" as="sourcePoint" />
            <mxPoint x="280" y="615" as="targetPoint" />
            <Array as="points">
              <mxPoint x="280" y="555" />
            </Array>
          </mxGeometry>
        </mxCell>
        <mxCell id="JSvV9pCxkYcWFkU1D8kk-31" value="" style="shape=flexArrow;endArrow=classic;html=1;width=17;endSize=8.73;shadow=0;strokeColor=#330000;" edge="1" parent="1">
          <mxGeometry width="50" height="50" relative="1" as="geometry">
            <mxPoint x="190" y="380" as="sourcePoint" />
            <mxPoint x="120" y="440" as="targetPoint" />
            <Array as="points">
              <mxPoint x="120" y="380" />
            </Array>
          </mxGeometry>
        </mxCell>
        <mxCell id="JSvV9pCxkYcWFkU1D8kk-1" value="&lt;font style=&quot;font-size: 20px&quot;&gt;底泥相&lt;/font&gt;" style="shape=cube;whiteSpace=wrap;html=1;boundedLbl=1;backgroundOutline=1;darkOpacity=0.05;darkOpacity2=0.1;size=40;fillColor=#fad7ac;strokeColor=#b46504;gradientColor=#ffffff;shadow=0;" vertex="1" parent="1">
          <mxGeometry x="320" y="530" width="380" height="70" as="geometry" />
        </mxCell>
        <mxCell id="JSvV9pCxkYcWFkU1D8kk-2" value="&lt;font style=&quot;font-size: 20px&quot;&gt;土壤相&lt;/font&gt;" style="shape=cube;whiteSpace=wrap;html=1;boundedLbl=1;backgroundOutline=1;darkOpacity=0.05;darkOpacity2=0.1;size=40;fillColor=#f0a30a;strokeColor=#BD7000;fontColor=#000000;gradientColor=#ffffff;" vertex="1" parent="1">
          <mxGeometry x="170" y="340" width="230" height="100" as="geometry" />
        </mxCell>
        <mxCell id="JSvV9pCxkYcWFkU1D8kk-4" value="&lt;font style=&quot;font-size: 20px&quot;&gt;大气相&lt;/font&gt;" style="shape=cube;whiteSpace=wrap;html=1;boundedLbl=1;backgroundOutline=1;darkOpacity=0.05;darkOpacity2=0.1;size=40;fillColor=#b1ddf0;strokeColor=#10739e;gradientColor=#ffffff;" vertex="1" parent="1">
          <mxGeometry x="230" y="110" width="380" height="150" as="geometry" />
        </mxCell>
        <mxCell id="JSvV9pCxkYcWFkU1D8kk-16" value="" style="shape=flexArrow;endArrow=classic;html=1;width=11;endSize=9.16;shadow=0;exitX=0.237;exitY=0.993;exitDx=0;exitDy=0;exitPerimeter=0;entryX=0.656;entryY=0.018;entryDx=0;entryDy=0;entryPerimeter=0;strokeWidth=3;" edge="1" parent="1" source="JSvV9pCxkYcWFkU1D8kk-4" target="JSvV9pCxkYcWFkU1D8kk-2">
          <mxGeometry width="50" height="50" relative="1" as="geometry">
            <mxPoint x="295" y="351" as="sourcePoint" />
            <mxPoint x="295" y="440" as="targetPoint" />
          </mxGeometry>
        </mxCell>
        <mxCell id="JSvV9pCxkYcWFkU1D8kk-17" value="&lt;font style=&quot;font-size: 20px&quot; color=&quot;#330000&quot;&gt;水体相&lt;/font&gt;" style="shape=cube;whiteSpace=wrap;html=1;boundedLbl=1;backgroundOutline=1;darkOpacity=0.05;darkOpacity2=0.1;size=40;fillColor=#1ba1e2;strokeColor=#006EAF;fontColor=#ffffff;gradientColor=#ffffff;" vertex="1" parent="1">
          <mxGeometry x="510" y="340" width="230" height="100" as="geometry" />
        </mxCell>
        <mxCell id="JSvV9pCxkYcWFkU1D8kk-18" value="" style="shape=flexArrow;endArrow=classic;html=1;width=11;endSize=9.16;shadow=0;strokeWidth=3;" edge="1" parent="1" target="JSvV9pCxkYcWFkU1D8kk-17">
          <mxGeometry width="50" height="50" relative="1" as="geometry">
            <mxPoint x="400" y="386" as="sourcePoint" />
            <mxPoint x="430.8200000000001" y="462.46000000000004" as="targetPoint" />
          </mxGeometry>
        </mxCell>
        <mxCell id="JSvV9pCxkYcWFkU1D8kk-13" value="" style="shape=flexArrow;endArrow=classic;html=1;width=11;endSize=9.16;shadow=0;strokeWidth=3;" edge="1" parent="1" source="JSvV9pCxkYcWFkU1D8kk-2">
          <mxGeometry width="50" height="50" relative="1" as="geometry">
            <mxPoint x="285" y="341" as="sourcePoint" />
            <mxPoint x="285" y="262" as="targetPoint" />
          </mxGeometry>
        </mxCell>
        <mxCell id="JSvV9pCxkYcWFkU1D8kk-25" value="" style="shape=flexArrow;endArrow=classic;html=1;width=11;endSize=9.16;shadow=0;strokeWidth=3;" edge="1" parent="1">
          <mxGeometry width="50" height="50" relative="1" as="geometry">
            <mxPoint x="560" y="340" as="sourcePoint" />
            <mxPoint x="560" y="262" as="targetPoint" />
          </mxGeometry>
        </mxCell>
        <mxCell id="JSvV9pCxkYcWFkU1D8kk-29" value="" style="shape=flexArrow;endArrow=classic;html=1;width=11;endSize=9.16;shadow=0;exitX=0.684;exitY=0.017;exitDx=0;exitDy=0;exitPerimeter=0;strokeWidth=3;" edge="1" parent="1" source="JSvV9pCxkYcWFkU1D8kk-1">
          <mxGeometry width="50" height="50" relative="1" as="geometry">
            <mxPoint x="580" y="508" as="sourcePoint" />
            <mxPoint x="580" y="440" as="targetPoint" />
          </mxGeometry>
        </mxCell>
        <mxCell id="JSvV9pCxkYcWFkU1D8kk-32" value="" style="shape=flexArrow;endArrow=classic;html=1;width=17;endSize=8.73;shadow=0;" edge="1" parent="1">
          <mxGeometry width="50" height="50" relative="1" as="geometry">
            <mxPoint x="740" y="430" as="sourcePoint" />
            <mxPoint x="800" y="480" as="targetPoint" />
            <Array as="points">
              <mxPoint x="800" y="430" />
            </Array>
          </mxGeometry>
        </mxCell>
        <mxCell id="JSvV9pCxkYcWFkU1D8kk-49" value="" style="group;rotation=20;" vertex="1" connectable="0" parent="1">
          <mxGeometry x="458.26" y="319.69" width="80" height="43.22" as="geometry" />
        </mxCell>
        <mxCell id="JSvV9pCxkYcWFkU1D8kk-48" value="" style="html=1;shadow=0;dashed=0;align=center;verticalAlign=middle;shape=mxgraph.arrows2.sharpArrow;dy1=0.67;dx1=18;dx2=18;notch=0;rotation=20;" vertex="1" parent="JSvV9pCxkYcWFkU1D8kk-49">
          <mxGeometry x="-3.8" y="2.1609999999999996" width="80" height="43.22" as="geometry" />
        </mxCell>
        <mxCell id="JSvV9pCxkYcWFkU1D8kk-47" value="" style="shape=partialRectangle;whiteSpace=wrap;html=1;top=0;bottom=0;fillColor=none;rotation=20;" vertex="1" parent="JSvV9pCxkYcWFkU1D8kk-49">
          <mxGeometry x="5.800000000000001" y="7.923666666666666" width="8" height="14.406666666666665" as="geometry" />
        </mxCell>
        <mxCell id="JSvV9pCxkYcWFkU1D8kk-50" value="" style="group;" vertex="1" connectable="0" parent="1">
          <mxGeometry x="610" y="155" width="50" height="60" as="geometry" />
        </mxCell>
        <mxCell id="JSvV9pCxkYcWFkU1D8kk-51" value="" style="html=1;shadow=0;dashed=0;align=center;verticalAlign=middle;shape=mxgraph.arrows2.sharpArrow;dy1=0.67;dx1=18;dx2=18;notch=0;" vertex="1" parent="JSvV9pCxkYcWFkU1D8kk-50">
          <mxGeometry width="50" height="60" as="geometry" />
        </mxCell>
        <mxCell id="JSvV9pCxkYcWFkU1D8kk-52" value="" style="shape=partialRectangle;whiteSpace=wrap;html=1;top=0;bottom=0;fillColor=none;dashed=1;" vertex="1" parent="JSvV9pCxkYcWFkU1D8kk-50">
          <mxGeometry x="5" y="20" width="5" height="20" as="geometry" />
        </mxCell>
        <mxCell id="JSvV9pCxkYcWFkU1D8kk-53" value="" style="group;" vertex="1" connectable="0" parent="1">
          <mxGeometry x="180" y="120" width="60" height="60" as="geometry" />
        </mxCell>
        <mxCell id="JSvV9pCxkYcWFkU1D8kk-54" value="" style="html=1;shadow=0;dashed=0;align=center;verticalAlign=middle;shape=mxgraph.arrows2.sharpArrow;dy1=0.67;dx1=18;dx2=18;notch=0;" vertex="1" parent="JSvV9pCxkYcWFkU1D8kk-53">
          <mxGeometry width="60" height="60" as="geometry" />
        </mxCell>
        <mxCell id="JSvV9pCxkYcWFkU1D8kk-55" value="" style="shape=partialRectangle;whiteSpace=wrap;html=1;top=0;bottom=0;fillColor=none;" vertex="1" parent="JSvV9pCxkYcWFkU1D8kk-53">
          <mxGeometry x="6" y="20" width="6" height="20" as="geometry" />
        </mxCell>
        <mxCell id="JSvV9pCxkYcWFkU1D8kk-56" value="" style="group;rotation=-30;" vertex="1" connectable="0" parent="1">
          <mxGeometry x="450" y="400" width="108.30127018922194" height="80.98076211353316" as="geometry" />
        </mxCell>
        <mxCell id="JSvV9pCxkYcWFkU1D8kk-70" value="" style="group;" vertex="1" connectable="0" parent="JSvV9pCxkYcWFkU1D8kk-56">
          <mxGeometry x="10" y="-20.98" width="98.3" height="80.98" as="geometry" />
        </mxCell>
        <mxCell id="JSvV9pCxkYcWFkU1D8kk-57" value="" style="html=1;shadow=0;dashed=0;align=center;verticalAlign=middle;shape=mxgraph.arrows2.sharpArrow;dy1=0.67;dx1=18;dx2=18;notch=0;rotation=-30;" vertex="1" parent="JSvV9pCxkYcWFkU1D8kk-70">
          <mxGeometry x="6.998259703022489" y="16.663365213825426" width="84.30348059395502" height="47.65326957234915" as="geometry" />
        </mxCell>
        <mxCell id="JSvV9pCxkYcWFkU1D8kk-58" value="" style="shape=partialRectangle;whiteSpace=wrap;html=1;top=0;bottom=0;fillColor=none;rotation=-30;dashed=1;" vertex="1" parent="JSvV9pCxkYcWFkU1D8kk-70">
          <mxGeometry x="19.643781792115742" y="46.843769276313225" width="8.430348059395502" height="15.88442319078305" as="geometry" />
        </mxCell>
        <mxCell id="JSvV9pCxkYcWFkU1D8kk-60" value="" style="group;" vertex="1" connectable="0" parent="1">
          <mxGeometry x="170" y="200" width="80" height="60" as="geometry" />
        </mxCell>
        <mxCell id="JSvV9pCxkYcWFkU1D8kk-63" value="" style="group;" vertex="1" connectable="0" parent="JSvV9pCxkYcWFkU1D8kk-60">
          <mxGeometry x="24" width="56" height="60" as="geometry" />
        </mxCell>
        <mxCell id="JSvV9pCxkYcWFkU1D8kk-61" value="" style="html=1;shadow=0;dashed=0;align=center;verticalAlign=middle;shape=mxgraph.arrows2.sharpArrow;dy1=0.67;dx1=18;dx2=18;notch=0;" vertex="1" parent="JSvV9pCxkYcWFkU1D8kk-63">
          <mxGeometry width="56" height="60" as="geometry" />
        </mxCell>
        <mxCell id="JSvV9pCxkYcWFkU1D8kk-62" value="" style="shape=partialRectangle;whiteSpace=wrap;html=1;top=0;bottom=0;fillColor=none;dashed=1;" vertex="1" parent="JSvV9pCxkYcWFkU1D8kk-63">
          <mxGeometry x="5.6000000000000005" y="20" width="5.6000000000000005" height="20" as="geometry" />
        </mxCell>
        <mxCell id="JSvV9pCxkYcWFkU1D8kk-67" value="" style="group;" vertex="1" connectable="0" parent="1">
          <mxGeometry x="740" y="350" width="50" height="60" as="geometry" />
        </mxCell>
        <mxCell id="JSvV9pCxkYcWFkU1D8kk-68" value="" style="html=1;shadow=0;dashed=0;align=center;verticalAlign=middle;shape=mxgraph.arrows2.sharpArrow;dy1=0.67;dx1=18;dx2=18;notch=0;" vertex="1" parent="JSvV9pCxkYcWFkU1D8kk-67">
          <mxGeometry width="50" height="60" as="geometry" />
        </mxCell>
        <mxCell id="JSvV9pCxkYcWFkU1D8kk-69" value="" style="shape=partialRectangle;whiteSpace=wrap;html=1;top=0;bottom=0;fillColor=none;dashed=1;" vertex="1" parent="JSvV9pCxkYcWFkU1D8kk-67">
          <mxGeometry x="5" y="20" width="5" height="20" as="geometry" />
        </mxCell>
        <mxCell id="JSvV9pCxkYcWFkU1D8kk-93" value="" style="group" vertex="1" connectable="0" parent="1">
          <mxGeometry x="40" y="460" width="200" height="245" as="geometry" />
        </mxCell>
        <mxCell id="JSvV9pCxkYcWFkU1D8kk-73" value="" style="rounded=1;whiteSpace=wrap;html=1;shadow=0;dashed=1;gradientColor=#ffffff;" vertex="1" parent="JSvV9pCxkYcWFkU1D8kk-93">
          <mxGeometry width="200" height="245" as="geometry" />
        </mxCell>
        <mxCell id="JSvV9pCxkYcWFkU1D8kk-75" value="&lt;font style=&quot;font-size: 14px&quot;&gt;相间迁移&lt;/font&gt;" style="text;html=1;strokeColor=none;fillColor=none;align=center;verticalAlign=middle;whiteSpace=wrap;rounded=0;shadow=0;dashed=1;strokeWidth=4;" vertex="1" parent="JSvV9pCxkYcWFkU1D8kk-93">
          <mxGeometry x="90" y="25" width="70" height="20" as="geometry" />
        </mxCell>
        <mxCell id="JSvV9pCxkYcWFkU1D8kk-76" value="" style="shape=flexArrow;endArrow=classic;html=1;width=11;endSize=9.16;shadow=0;strokeWidth=3;" edge="1" parent="JSvV9pCxkYcWFkU1D8kk-93">
          <mxGeometry width="50" height="50" relative="1" as="geometry">
            <mxPoint x="10" y="34.5" as="sourcePoint" />
            <mxPoint x="70" y="34.5" as="targetPoint" />
          </mxGeometry>
        </mxCell>
        <mxCell id="JSvV9pCxkYcWFkU1D8kk-77" value="&lt;span style=&quot;font-size: 14px&quot;&gt;降解反应&lt;/span&gt;" style="text;html=1;strokeColor=none;fillColor=none;align=center;verticalAlign=middle;whiteSpace=wrap;rounded=0;shadow=0;dashed=1;strokeWidth=4;" vertex="1" parent="JSvV9pCxkYcWFkU1D8kk-93">
          <mxGeometry x="90" y="85" width="70" height="20" as="geometry" />
        </mxCell>
        <mxCell id="JSvV9pCxkYcWFkU1D8kk-80" value="" style="shape=flexArrow;endArrow=classic;html=1;width=17;endSize=8.73;shadow=0;" edge="1" parent="JSvV9pCxkYcWFkU1D8kk-93">
          <mxGeometry width="50" height="50" relative="1" as="geometry">
            <mxPoint x="10" y="85" as="sourcePoint" />
            <mxPoint x="50" y="125" as="targetPoint" />
            <Array as="points">
              <mxPoint x="50" y="85" />
            </Array>
          </mxGeometry>
        </mxCell>
        <mxCell id="JSvV9pCxkYcWFkU1D8kk-81" value="" style="group;" vertex="1" connectable="0" parent="JSvV9pCxkYcWFkU1D8kk-93">
          <mxGeometry x="10" y="135" width="60" height="40" as="geometry" />
        </mxCell>
        <mxCell id="JSvV9pCxkYcWFkU1D8kk-82" value="" style="html=1;shadow=0;dashed=0;align=center;verticalAlign=middle;shape=mxgraph.arrows2.sharpArrow;dy1=0.67;dx1=18;dx2=18;notch=0;" vertex="1" parent="JSvV9pCxkYcWFkU1D8kk-81">
          <mxGeometry width="60" height="40" as="geometry" />
        </mxCell>
        <mxCell id="JSvV9pCxkYcWFkU1D8kk-83" value="" style="shape=partialRectangle;whiteSpace=wrap;html=1;top=0;bottom=0;fillColor=none;" vertex="1" parent="JSvV9pCxkYcWFkU1D8kk-81">
          <mxGeometry x="6" y="13.333333333333332" width="6" height="13.333333333333332" as="geometry" />
        </mxCell>
        <mxCell id="JSvV9pCxkYcWFkU1D8kk-84" value="&lt;span style=&quot;font-size: 14px&quot;&gt;平流输入&lt;/span&gt;" style="text;html=1;strokeColor=none;fillColor=none;align=center;verticalAlign=middle;whiteSpace=wrap;rounded=0;shadow=0;dashed=1;strokeWidth=4;" vertex="1" parent="JSvV9pCxkYcWFkU1D8kk-93">
          <mxGeometry x="90" y="195" width="70" height="20" as="geometry" />
        </mxCell>
        <mxCell id="JSvV9pCxkYcWFkU1D8kk-90" value="" style="html=1;shadow=0;dashed=0;align=center;verticalAlign=middle;shape=mxgraph.arrows2.sharpArrow;dy1=0.67;dx1=18;dx2=18;notch=0;" vertex="1" parent="JSvV9pCxkYcWFkU1D8kk-93">
          <mxGeometry x="10" y="185" width="60" height="40" as="geometry" />
        </mxCell>
        <mxCell id="JSvV9pCxkYcWFkU1D8kk-91" value="" style="shape=partialRectangle;whiteSpace=wrap;html=1;top=0;bottom=0;fillColor=none;dashed=1;" vertex="1" parent="JSvV9pCxkYcWFkU1D8kk-93">
          <mxGeometry x="16" y="198.33333333333337" width="6" height="13.333333333333332" as="geometry" />
        </mxCell>
        <mxCell id="JSvV9pCxkYcWFkU1D8kk-92" value="&lt;span style=&quot;font-size: 14px&quot;&gt;排放输入&lt;/span&gt;" style="text;html=1;strokeColor=none;fillColor=none;align=center;verticalAlign=middle;whiteSpace=wrap;rounded=0;shadow=0;dashed=1;strokeWidth=4;" vertex="1" parent="JSvV9pCxkYcWFkU1D8kk-93">
          <mxGeometry x="90" y="145" width="70" height="20" as="geometry" />
        </mxCell>
      </root>
    </mxGraphModel>
  </diagram>
</mxfile>
